# Blender v2.93.0 OBJ File: ''
# www.blender.org
o Plane
v -1.000000 0.000000 1.000000
v 1.000000 0.000000 1.000000
v -1.000000 0.000000 -1.000000
v 1.000000 0.000000 -1.000000
vt 0.000000 0.000000
vt 1.000000 0.000000
vt 1.000000 1.000000
vt 0.000000 1.000000
vn 0.0000 1.0000 0.0000
s off
f 1/1/1 2/2/1 4/3/1
f 4/3/1 3/4/1 1/1/1
o Plane.001
v 2.000000 1.000000 1.000000
v 2.000000 -1.000000 1.000000
v 2.000000 1.000000 -1.000000
v 2.000000 -1.000000 -1.000000
vt 0.000000 0.000000
vt 1.000000 0.000000
vt 1.000000 1.000000
vt 0.000000 1.000000
vn 1.0000 0.0000 0.0000
s off
#f 5/5/2 6/6/2 8/7/2 7/8/2
f 5/5/2 6/6/2 8/7/2
f 8/7/2 7/8/2 5/5/2
